<?xml version='1.0' encoding='utf-8'?>
<svg xmlns="http://www.w3.org/2000/svg" version="1.1" width="1024px" height="768px" viewBox="28 681 1024 768"> <g id="layer1"> <g style="fill:rgb(255,211,116); fill-opacity:1.0; stroke-linejoin: miter"> <path d="M27.999,680.49976C27.866589,680.49976,27.7396,680.55237,27.64597,680.646C27.55234,680.7396,27.499739,680.86664,27.499739,680.999L27.500738,1449.0C27.500738,1449.2758,27.724266,1449.4993,28.0,1449.4993L1052.001,1449.5002C1052.1334,1449.5002,1052.2604,1449.4476,1052.354,1449.354C1052.4476,1449.2604,1052.5002,1449.1334,1052.5002,1449.001L1052.4993,681.0C1052.4993,680.72424,1052.2758,680.50073,1052.0,680.50073L27.999,680.49976 Z"/> </g> </g> <g id="layer2"> <g> <g style="fill:rgb(38,120,95); fill-opacity:1.0; stroke-linejoin: miter"> <path d="M199.15945,1100.3483L485.76453,1077.9695L267.08975,1143.9949 Z"/> </g> <g style="fill:rgb(38,120,95); fill-opacity:1.0; stroke-linejoin: miter"> <path d="M485.76453,1077.9695L267.08975,1143.9949L284.42395,1217.7152 Z"/> </g> <g style="fill:rgb(38,120,95); fill-opacity:1.0; stroke-linejoin: miter"> <path d="M485.76453,1077.9695L303.88968,1166.4413L348.51993,1265.9421 Z"/> </g> <g style="fill:rgb(38,120,95); fill-opacity:1.0; stroke-linejoin: miter"> <path d="M284.42395,1217.7152L303.88968,1166.4413L316.80728,1195.223 Z"/> </g> <g style="fill:rgb(38,120,95); fill-opacity:1.0; stroke-linejoin: miter"> <path d="M261.25607,1224.6469C261.25607,1224.6469,259.82333,1225.5808,257.15875,1227.194 Z"/> </g> <g style="fill:rgb(38,120,95); fill-opacity:1.0; stroke-linejoin: miter"> <path d="M347.6876,1159.0487Q346.61545,1161.9583,346.54718,1164.8921Q346.51788,1167.6357,347.5472,1168.141Q347.97638,1168.3853,348.69965,1168.4323Q353.873,1168.3691,356.6312,1168.81Q357.59912,1168.9641,358.18164,1169.1715Q358.45016,1169.2378,359.7867,1169.9025L360.38644,1170.1212Q360.97897,1170.3058,361.84006,1170.404Q364.38284,1170.6573,367.19952,1170.3518Q372.5031,1169.8271,370.35968,1166.7316Q369.76495,1165.9233,369.007,1165.6484Q368.71198,1165.5338,368.26663,1165.4626Q366.08838,1165.2982,365.5487,1165.0981Q364.48584,1164.8016,363.5603,1164.1416Q361.80237,1162.9918,357.86572,1157.8589L347.7341,1159.0438 Z"/> </g> <g style="fill:rgb(38,120,95); fill-opacity:1.0; stroke-linejoin: miter"> <path d="M318.38675,1161.3976L308.79288,1163.2493Q308.32715,1167.7609,308.63647,1170.0345Q309.2237,1174.7653,312.16934,1175.6423Q313.833,1176.2896,318.36987,1176.1562Q321.86356,1175.8933,322.86496,1174.9976Q323.5459,1174.4297,323.18576,1173.4039Q323.0091,1172.8689,322.56506,1172.1284Q320.55563,1169.0903,320.44342,1168.8073Q319.96252,1167.9595,319.6214,1167.1097Q318.8349,1165.2439,318.38736,1161.4017 Z"/> </g> <g style="fill:rgb(38,120,95); fill-opacity:1.0; stroke-linejoin: miter"> <path d="M409.81775,1129.4136L406.2307,1123.9167L402.64368,1118.4213Q354.05292,1142.0776,305.46127,1165.7332Q312.87936,1182.3815,320.29742,1199.0308Q359.29834,1185.0887,398.29932,1171.1455L409.81775,1129.4136 Z"/> </g> </g> <g style="fill:rgb(38,120,95); fill-opacity:1.0; stroke-linejoin: miter"> <path d="M425.30167,1160.78L369.10303,1193.8726L327.2467,1218.5154L340.43954,1247.9279L377.60544,1226.1064L425.30167,1160.78 Z"/> </g> <g style="fill:rgb(38,120,95); fill-opacity:1.0; stroke-linejoin: miter"> <path d="M358.48566,1087.9075L326.43625,1090.4102L285.24176,1093.6263C267.15192,1104.2905,250.13568,1114.3309,234.91667,1123.3235L265.24152,1142.8073L319.87503,1110.6395L358.48566,1087.9075 Z"/> </g> <g style="fill:rgb(38,120,95); fill-opacity:1.0; stroke-linejoin: miter"> <path d="M485.76453,1077.9694L451.9301,1080.6112C457.24686,1089.4874,463.44788,1100.1946,466.00262,1105.0356L485.76453,1077.9694 Z"/> </g> <g style="fill:rgb(42,175,134); fill-opacity:1.0; stroke-linejoin: miter"> <path d="M451.92743,1080.6115L446.65198,1081.0233L443.12854,1081.2983L358.48816,1087.9073L265.24213,1142.8077L267.08975,1143.9949L284.42395,1217.7152L303.88968,1166.4413L316.80118,1195.2272L284.42395,1217.7152L284.42368,1217.7158L316.80664,1195.2391L327.24573,1218.5137L425.30374,1160.7772L439.81616,1140.9005L466.00055,1105.0386C463.45148,1100.2007,457.24905,1089.491,451.93103,1080.613 Z M359.79037,1115.0553C360.13962,1115.196,360.48703,1115.342,360.8326,1115.4932C360.85367,1115.5024,360.87656,1115.5127,360.89932,1115.5223L360.90292,1115.5243C360.90353,1115.524,360.90414,1115.5243,360.90472,1115.5247L360.89975,1115.5231C360.9053,1115.5253,360.90787,1115.5264,360.91043,1115.5275C360.91592,1115.5297,360.92093,1115.5319,360.9261,1115.5337L360.9279,1115.5355C360.9598,1115.5488,360.9915,1115.563,361.02313,1115.5771L361.01987,1115.5763C361.0231,1115.5774,361.025,1115.5779,361.0267,1115.5787C361.05185,1115.5896,361.07166,1115.5986,361.09143,1115.6074L361.0919,1115.6082C361.09525,1115.6091,361.0981,1115.6106,361.10123,1115.6118C361.48355,1115.7828,361.86386,1115.9597,362.2418,1116.1439C380.0593,1124.8048,388.6246,1144.8213,382.8688,1164.1451C380.00415,1173.731,373.32874,1181.7628,364.80212,1186.7805C358.63632,1190.4095,351.5025,1192.4664,344.14957,1192.403C339.2004,1192.356,334.35312,1191.3925,329.73364,1189.5305C325.7169,1187.9113,321.8725,1185.6132,318.2828,1182.6481C314.70374,1179.7423,313.8485,1178.675,310.18585,1172.4536C306.42453,1166.0641,305.97946,1165.054,305.14645,1160.0803C303.90054,1152.8842,304.1562,1147.3497,306.14813,1140.5652C308.23907,1133.5737,312.78824,1126.5533,318.32227,1121.7273C322.93747,1117.7196,328.48715,1114.9299,334.38843,1113.4353L334.3881,1113.4362C342.7017,1111.3312,351.71164,1111.7988,359.79037,1115.0553 Z"/> </g> <g style="fill:rgb(42,175,134); fill-opacity:1.0; stroke-linejoin: miter"> <path d="M360.91745,1115.5305C360.92978,1115.5361,360.94205,1115.5419,360.95422,1115.5474C360.94156,1115.5411,360.93094,1115.5367,360.92032,1115.5317 Z"/> </g> <g style="fill:rgb(38,120,95); fill-opacity:1.0; stroke-linejoin: miter"> <path d="M318.32227,1121.7273C312.78824,1126.5533,308.23907,1133.5737,306.14813,1140.5652C304.1562,1147.3497,303.90054,1152.8842,305.14645,1160.0803C305.97946,1165.054,306.42453,1166.0641,310.18585,1172.4536C313.8485,1178.675,314.70374,1179.7423,318.2828,1182.6481C326.00104,1189.0238,334.8973,1192.3151,344.14957,1192.403C361.67215,1192.5575,377.93417,1180.6638,382.8688,1164.1451C388.6246,1144.8213,380.0593,1124.8048,362.2418,1116.1439C347.9768,1109.2,330.10474,1111.4963,318.32227,1121.7273 Z"/> </g> <g style="fill:rgb(18,91,69); fill-opacity:1.0; stroke-linejoin: miter"> <path d="M323.778,1126.6678L326.7532,1131.7378Q323.53592,1135.9646,323.1072,1141.303Q322.67865,1146.6407,325.5201,1151.4843Q327.3404,1154.5865,330.19348,1156.6764Q333.00287,1158.6906,336.2451,1159.5348Q339.48676,1160.3793,342.99738,1159.9476Q346.43182,1159.5604,349.5344,1157.7405L349.98874,1157.4746Q350.9854,1157.0929,351.99084,1157.4185Q352.9955,1157.7443,353.57254,1158.7283Q354.19424,1159.7872,353.88123,1160.988Q353.56845,1162.1892,352.5091,1162.8105Q351.4498,1163.4321,350.24857,1163.1189Q349.04794,1162.8062,348.42645,1161.7468L335.86423,1169.1168Q337.28458,1171.5383,339.32855,1173.2885Q341.25308,1175.0083,343.64938,1176.1459Q345.9262,1177.2512,348.5098,1177.6681Q351.04987,1178.0092,353.65698,1177.5988L357.03128,1183.35L369.74533,1175.8925L365.97095,1169.4591Q368.44952,1165.3607,368.55756,1160.5165Q368.7098,1155.7479,366.13522,1151.358Q364.3146,1148.256,361.46143,1146.166Q358.65176,1144.152,355.41025,1143.3066Q352.168,1142.4623,348.65814,1142.8947Q345.2229,1143.2819,342.12015,1145.1023L341.66623,1145.3688Q340.66953,1145.7501,339.61996,1145.3484Q338.61502,1145.0222,338.08234,1144.114Q337.46103,1143.0547,337.7291,1141.7783Q338.04172,1140.5771,339.10107,1139.9558Q340.16052,1139.3339,341.40607,1139.7228Q342.60657,1140.0355,343.2284,1141.095L355.79092,1133.7262Q353.21564,1129.3357,348.9344,1127.0667Q344.65323,1124.7977,339.8662,1124.9608L336.4922,1119.2095 Z"/> </g> <g style="fill:rgb(42,175,134); fill-opacity:1.0; stroke-linejoin: miter"> <path d="M323.0868,1127.928L326.06116,1132.9982Q322.84427,1137.2255,322.41516,1142.5634Q321.9867,1147.9006,324.8281,1152.7443Q326.64844,1155.8466,329.50146,1157.9364Q332.31097,1159.9504,335.55273,1160.7952Q338.79486,1161.6393,342.30493,1161.2083Q345.73996,1160.8203,348.8425,1159.0009L349.29715,1158.7345Q350.29352,1158.3533,351.2987,1158.679Q352.3035,1159.0044,352.8805,1159.9884Q353.50235,1161.048,353.1893,1162.2489Q352.87656,1163.4495,351.81717,1164.0712Q350.75735,1164.6919,349.557,1164.3792Q348.3561,1164.0664,347.73447,1163.0066L335.1726,1170.3768Q336.59274,1172.7986,338.63712,1174.549Q340.5613,1176.2686,342.95786,1177.4056Q345.23413,1178.5117,347.81842,1178.9283Q350.35828,1179.2694,352.9652,1178.859L356.33942,1184.6105L369.05325,1177.1525L365.2794,1170.7194Q367.75757,1166.6211,367.8661,1161.7765Q368.0183,1157.008,365.44284,1152.6187Q363.62314,1149.5162,360.76944,1147.4258Q357.9599,1145.4117,354.7183,1144.5669Q351.47595,1143.7223,347.96603,1144.1544Q344.5307,1144.542,341.428,1146.3622L340.97464,1146.629Q339.97696,1147.01,338.92844,1146.6086Q337.9233,1146.2825,337.39038,1145.3744Q336.7685,1144.3146,337.03708,1143.0385Q337.34964,1141.8379,338.40903,1141.2157Q339.46893,1140.594,340.7139,1140.983Q341.91452,1141.2955,342.5363,1142.3553L355.09872,1134.986Q352.5237,1130.5964,348.24277,1128.3269Q343.96127,1126.0577,339.1747,1126.2206L335.80017,1120.4697 Z"/> </g> <g style="fill:rgb(0,0,0); fill-opacity:0.5294118; stroke-linejoin: miter"> <path d="M482.21515,1079.6658L374.64685,1111.8204L267.07812,1143.975Q275.7667,1180.813,284.4552,1217.651Q294.1692,1192.2936,303.88318,1166.936L482.21515,1079.6658"/> </g> <g style="fill:rgb(255,177,147); fill-opacity:1.0; stroke-linejoin: miter"> <path d="M286.2032,1166.3157L286.2032,1166.316L286.2032,1166.316L286.2032,1166.3157"/> </g> <g style="fill:rgb(255,0,0); fill-opacity:1.0; stroke-linejoin: miter"> <path d="M800.1424,901.8533C702.64655,850.7934,581.7874,888.57135,530.7274,986.06635C479.66736,1083.5618,517.4453,1204.4205,614.941,1255.4808C712.4365,1306.541,833.29584,1268.7634,884.3561,1171.2677C935.41626,1073.7727,897.638,952.9132,800.1424,901.8533 Z M633.83905,1219.3966C556.24036,1178.7563,526.1721,1082.563,566.8119,1004.9643C607.4516,927.36615,703.64557,897.29803,781.24426,937.93774C858.84296,978.5774,888.9115,1074.7715,848.27155,1152.3695C807.63165,1229.9685,711.43756,1260.0363,633.83905,1219.3966 Z M768.9604,961.39276C704.29443,927.5262,624.1336,952.5825,590.2669,1017.24805C556.40015,1081.9141,581.4568,1162.075,646.12286,1195.9417C710.7887,1229.8083,790.9498,1204.7515,824.81665,1140.0858C858.6834,1075.4203,833.62665,995.25946,768.9604,961.39276 Z M665.0212,1159.8566C620.2521,1136.4103,602.9051,1080.9148,626.3512,1036.1462C649.7974,991.37787,705.2932,974.03094,750.06226,997.4771C794.83093,1020.9232,812.17786,1076.4191,788.7318,1121.1875C765.2857,1165.9563,709.78986,1183.303,665.0212,1159.8566 Z M737.7785,1020.9319C705.9435,1004.2594,666.4787,1016.5954,649.8062,1048.4299C633.1339,1080.2648,645.46967,1119.73,677.30457,1136.4026C709.1397,1153.0751,748.6044,1140.7388,765.27686,1108.904C781.9493,1077.0692,769.6136,1037.6045,737.7785,1020.9319 Z M696.20264,1100.3179C684.26483,1094.0659,679.6387,1079.2664,685.8908,1067.3281C692.1429,1055.3905,706.9426,1050.7642,718.8805,1057.0164C730.81836,1063.2682,735.4443,1078.0682,729.19214,1090.0057C722.94006,1101.9437,708.1406,1106.5701,696.20264,1100.3179 Z"/> </g> <g style="fill:rgb(255,255,255); fill-opacity:1.0; stroke-linejoin: miter"> <path d="M768.8479,961.6076C833.3953,995.4119,858.40576,1075.4265,824.60126,1139.9733C790.7967,1204.5203,710.7826,1229.531,646.2355,1195.7266C581.68823,1161.9218,556.6775,1081.9077,590.48206,1017.3607C624.2865,952.81396,704.3006,927.80316,768.8479,961.6076 Z M781.35675,937.723C703.63947,897.0212,607.299,927.13495,566.59705,1004.85187C525.895,1082.5693,556.0092,1178.9093,633.72644,1219.6115C711.4436,1260.3134,807.7844,1230.1997,848.48645,1152.4822C889.1888,1074.7653,859.0741,978.4248,781.35675,937.723 Z"/> </g> <g style="fill:rgb(255,255,255); fill-opacity:1.0; stroke-linejoin: miter"> <path d="M737.66595,1021.147C769.3822,1037.7573,781.67194,1077.0754,765.0617,1108.7913C748.45135,1140.5077,709.1335,1152.798,677.4172,1136.1875C645.701,1119.577,633.41125,1080.2585,650.02136,1048.5425C666.63165,1016.8267,705.94965,1004.5366,737.66595,1021.147 Z M750.1749,997.26215C705.28723,973.75385,649.64465,991.1462,626.1363,1036.0336C602.6278,1080.9213,620.0205,1136.5637,664.90826,1160.072C709.79565,1183.5804,765.43835,1166.188,788.94684,1121.3002C812.45514,1076.4128,795.06226,1020.7704,750.1749,997.26215 Z"/> </g> <g style="fill:rgb(255,255,255); fill-opacity:1.0; stroke-linejoin: miter"> <path d="M718.9931,1056.8014C706.9363,1050.4868,691.9901,1055.1587,685.67566,1067.2155C679.36145,1079.2723,684.0332,1094.2189,696.09,1100.5332C708.1466,1106.8473,723.09283,1102.1752,729.4071,1090.1183C735.7216,1078.0618,731.0497,1063.1156,718.9931,1056.8014 Z"/> </g> </g> </svg>